<?xml version="1.0" standalone="no"?>
<!DOCTYPE svg PUBLIC "-//W3C//DTD SVG 20010904//EN"
 "http://www.w3.org/TR/2001/REC-SVG-20010904/DTD/svg10.dtd">
<svg version="1.0" xmlns="http://www.w3.org/2000/svg"
 width="219.000000pt" height="230.000000pt" viewBox="0 0 219.000000 230.000000"
 preserveAspectRatio="xMidYMid meet">

<g transform="translate(0.000000,230.000000) scale(0.100000,-0.100000)"
fill="#000000" stroke="none">
<path d="M1028 2238 c-28 -10 -39 -38 -15 -38 17 0 57 29 57 41 0 11 -6 11
-42 -3z"/>
<path d="M1112 2238 c6 -18 55 -44 65 -34 10 9 -33 46 -54 46 -8 0 -13 -6 -11
-12z"/>
<path d="M947 2222 c-18 -20 -22 -42 -9 -42 13 0 39 24 45 43 8 23 -15 22 -36
-1z"/>
<path d="M1196 2228 c22 -38 54 -61 54 -38 0 6 -8 10 -17 11 -12 0 -13 2 -5 6
10 4 10 8 1 19 -14 18 -43 19 -33 2z"/>
<path d="M887 2202 c-19 -20 -23 -52 -7 -52 5 0 17 11 26 26 21 32 6 53 -19
26z"/>
<path d="M1270 2199 c0 -25 16 -49 32 -49 16 0 8 37 -12 55 -19 18 -20 17 -20
-6z"/>
<path d="M1060 2200 c0 -5 16 -10 36 -10 21 0 33 4 29 10 -3 6 -19 10 -36 10
-16 0 -29 -4 -29 -10z"/>
<path d="M990 2180 c-11 -7 -9 -11 13 -19 35 -13 54 -14 61 -2 4 6 -45 33 -58
31 -1 0 -8 -4 -16 -10z"/>
<path d="M1135 2176 l-30 -13 27 -8 c32 -8 79 12 57 26 -17 11 -18 11 -54 -5z"/>
<path d="M826 2164 c-11 -28 -6 -51 13 -68 17 -15 25 -16 55 -6 49 16 58 34
15 28 -19 -3 -42 -9 -53 -13 -16 -7 -17 -5 -8 11 6 11 6 28 1 42 -10 26 -15
28 -23 6z"/>
<path d="M1334 2165 c-4 -8 -4 -26 -2 -40 4 -21 2 -23 -13 -15 -10 6 -30 10
-45 10 -21 0 -24 -3 -15 -14 35 -42 101 -20 101 35 0 32 -17 48 -26 24z"/>
<path d="M911 2151 c-21 -14 30 -25 67 -16 25 7 25 8 7 15 -27 12 -57 12 -74
1z"/>
<path d="M1200 2150 l-25 -7 28 -8 c35 -9 87 2 66 16 -16 10 -34 10 -69 -1z"/>
<path d="M780 2097 c0 -17 29 -57 41 -57 16 0 10 36 -9 53 -22 20 -32 21 -32
4z"/>
<path d="M1365 2090 c-10 -11 -15 -26 -11 -36 6 -15 8 -15 26 1 20 18 28 55
12 55 -5 0 -17 -9 -27 -20z"/>
<path d="M858 2059 c-23 -13 -24 -42 -2 -37 22 4 52 48 33 48 -8 0 -22 -5 -31
-11z"/>
<path d="M1292 2048 c18 -26 48 -36 48 -16 0 20 -21 38 -43 38 -18 0 -18 -2
-5 -22z"/>
<path d="M760 2053 c1 -14 24 -39 48 -52 21 -11 23 -11 20 5 -3 18 -68 63 -68
47z"/>
<path d="M1382 2038 c-36 -23 -44 -49 -11 -41 20 5 56 49 48 58 -3 2 -19 -5
-37 -17z"/>
<path d="M1715 1989 c-6 -51 -5 -63 9 -71 23 -13 30 -8 43 32 18 50 17 56 -16
79 l-29 21 -7 -61z"/>
<path d="M1818 2022 c-20 -22 -43 -70 -51 -103 -5 -20 -1 -31 18 -49 l24 -22
4 48 3 49 2 -51 c1 -28 9 -71 17 -94 8 -23 15 -54 14 -69 -1 -18 -4 -14 -9 16
-12 57 -33 96 -72 128 -37 32 -116 70 -165 80 -32 6 -33 6 -33 -30 0 -42 37
-119 81 -170 25 -28 34 -33 45 -24 12 10 13 9 8 -5 -5 -12 3 -20 30 -31 38
-16 76 -20 76 -8 0 4 -37 46 -82 92 -58 60 -65 69 -23 30 33 -30 77 -68 99
-84 37 -28 39 -28 52 -10 8 10 14 23 14 28 0 4 4 6 9 3 14 -9 41 5 41 21 0 8
-8 17 -19 20 -15 4 -18 12 -14 48 5 41 -30 190 -47 200 -4 3 -14 -3 -22 -13z
m-81 -294 c-3 -8 -6 -5 -6 6 -1 11 2 17 5 13 3 -3 4 -12 1 -19z"/>
<path d="M564 1991 c-34 -16 -64 -36 -67 -45 -4 -10 -11 -15 -15 -12 -16 10
-90 -78 -101 -119 -16 -61 -15 -61 38 3 51 61 128 130 196 175 52 36 25 34
-51 -2z"/>
<path d="M862 2008 c-7 -7 -12 -20 -12 -31 0 -30 34 -16 38 16 4 29 -6 35 -26
15z"/>
<path d="M1290 1995 c0 -14 2 -25 4 -25 2 0 11 -3 20 -6 19 -7 22 26 4 44 -19
19 -28 14 -28 -13z"/>
<path d="M783 1976 c23 -22 25 -26 10 -26 -29 -1 24 -40 53 -40 32 0 31 18 -2
26 -19 5 -22 9 -12 15 18 12 -7 36 -47 44 l-30 6 28 -25z"/>
<path d="M1371 1987 c-26 -13 -40 -37 -21 -37 18 0 70 30 70 40 0 13 -20 12
-49 -3z"/>
<path d="M378 1942 c-82 -123 -137 -298 -115 -367 l10 -35 35 88 c32 80 105
342 98 349 -2 2 -15 -14 -28 -35z"/>
<path d="M891 1966 c-15 -18 -11 -48 6 -53 7 -3 15 7 19 22 8 33 -8 52 -25 31z"/>
<path d="M1266 1962 c-8 -25 2 -52 20 -52 18 0 18 44 0 59 -11 10 -16 8 -20
-7z"/>
<path d="M932 1925 c2 -19 10 -31 21 -33 24 -5 22 21 -4 44 -21 19 -21 19 -17
-11z"/>
<path d="M1228 1933 c-22 -24 -23 -43 -3 -43 18 0 28 21 23 46 -3 14 -5 14
-20 -3z"/>
<path d="M1353 1943 c-12 -2 -27 -11 -33 -19 -20 -23 33 -18 61 6 24 20 19 22
-28 13z"/>
<path d="M995 1890 c10 -11 30 -20 44 -20 l26 1 -24 19 c-13 11 -32 20 -44 20
-19 0 -20 -1 -2 -20z"/>
<path d="M1153 1898 c-13 -6 -23 -15 -23 -20 0 -16 37 -8 55 12 21 23 6 26
-32 8z"/>
<path d="M836 1890 c6 -6 28 -14 50 -17 36 -6 38 -5 25 10 -8 10 -28 17 -49
17 -25 0 -33 -3 -26 -10z"/>
<path d="M1270 1885 c-11 -13 -8 -15 17 -15 16 0 38 7 49 15 18 13 17 14 -17
15 -21 0 -42 -7 -49 -15z"/>
<path d="M523 1865 c-62 -28 -136 -94 -168 -149 -25 -43 -69 -165 -62 -172 2
-3 36 45 76 105 43 66 98 134 141 175 39 36 69 66 68 65 -2 0 -26 -11 -55 -24z"/>
<path d="M912 1861 c-10 -6 -8 -9 10 -12 32 -6 68 0 68 12 0 11 -60 12 -78 0z"/>
<path d="M1085 1860 c-3 -5 -1 -10 4 -10 6 0 11 5 11 10 0 6 -2 10 -4 10 -3 0
-8 -4 -11 -10z"/>
<path d="M1195 1860 c3 -5 25 -10 48 -10 31 0 38 3 27 10 -20 13 -83 13 -75 0z"/>
<path d="M980 1840 c-11 -7 -4 -10 27 -10 23 0 45 5 48 10 8 13 -55 13 -75 0z"/>
<path d="M1125 1840 c3 -5 25 -10 48 -10 31 0 38 3 27 10 -20 13 -83 13 -75 0z"/>
<path d="M1548 1819 l-27 -10 37 -33 c62 -54 94 -76 103 -70 5 3 9 1 9 -4 0
-11 79 -36 88 -28 3 3 -1 6 -10 6 -28 0 -103 59 -132 104 -16 25 -32 46 -35
45 -3 0 -18 -5 -33 -10z"/>
<path d="M1069 1804 c-7 -8 -31 -25 -53 -36 -51 -26 -141 -21 -209 12 l-49 23
-61 -68 c-34 -38 -83 -91 -109 -119 l-47 -51 34 -27 c36 -31 78 -110 89 -170
9 -49 -7 -105 -54 -198 -60 -118 -83 -208 -78 -296 5 -67 9 -81 44 -132 64
-93 141 -131 294 -148 95 -10 149 -29 186 -65 l34 -33 27 26 c45 42 85 57 194
73 128 19 150 25 143 36 -3 5 2 6 10 3 37 -14 132 71 165 149 42 99 24 221
-59 389 -43 88 -50 110 -50 162 0 75 41 170 90 208 l33 26 -39 38 c-22 22 -71
75 -110 118 l-71 79 -49 -24 c-69 -33 -158 -38 -210 -11 -22 11 -46 28 -53 36
-8 9 -17 16 -21 16 -4 0 -13 -7 -21 -16z m-191 -92 c53 -9 125 -2 161 18 11 5
22 10 26 10 3 0 4 -114 3 -252 l-3 -253 -67 -3 c-60 -3 -67 -1 -73 18 -12 37
6 123 33 164 21 30 27 54 30 107 4 56 8 69 23 74 27 9 24 23 -6 31 -14 3 -25
11 -26 18 -2 30 -18 -35 -18 -76 -1 -28 -7 -53 -17 -62 -19 -19 -17 -19 -87
-1 -51 13 -61 13 -87 0 -40 -21 -43 -29 -25 -71 17 -41 19 -82 6 -103 -6 -10
-5 -27 5 -49 20 -49 19 -52 -26 -52 -39 0 -39 0 -32 33 21 93 -11 221 -70 285
l-22 22 30 33 c16 17 53 58 83 89 52 55 55 56 80 43 15 -7 50 -18 79 -23z
m600 -33 c99 -106 98 -103 68 -142 -46 -60 -69 -126 -69 -197 0 -36 3 -75 7
-87 7 -22 5 -23 -54 -23 -99 0 -102 4 -99 121 2 54 0 101 -3 105 -4 3 -16 3
-28 -1 -16 -5 -19 -10 -11 -18 6 -6 11 -47 11 -93 0 -108 -6 -114 -111 -114
l-79 0 0 255 c0 140 2 255 4 255 2 0 20 -7 41 -16 61 -25 185 -17 235 16 8 5
16 10 18 10 1 0 33 -32 70 -71z m107 -77 c-3 -3 -11 0 -18 7 -9 10 -8 11 6 5
10 -3 15 -9 12 -12z m-700 -220 c-3 -8 -5 -45 -5 -83 0 -67 -1 -69 -26 -69
-19 0 -28 8 -40 37 -14 32 -14 43 -2 77 7 23 12 44 10 48 -1 5 14 7 33 5 25
-1 34 -6 30 -15z m-89 -104 c8 -22 10 -39 4 -43 -14 -9 -41 65 -34 89 5 16 8
17 11 6 3 -8 11 -32 19 -52z m114 5 c0 -42 -3 -54 -11 -46 -11 11 -5 103 7
103 2 0 4 -26 4 -57z m-249 -66 c-10 -9 -11 -8 -5 6 3 10 9 15 12 12 3 -3 0
-11 -7 -18z m864 -49 c8 -13 30 -59 47 -103 27 -68 32 -93 33 -165 0 -66 -4
-92 -18 -113 -10 -15 -15 -33 -11 -39 4 -6 3 -8 -3 -5 -14 9 -37 -19 -27 -34
4 -7 3 -9 -4 -5 -13 8 -75 -28 -65 -38 4 -4 -1 -4 -11 0 -12 5 -17 4 -13 -3 3
-5 -2 -9 -11 -9 -78 3 -274 -40 -316 -69 l-36 -24 -36 24 c-42 29 -71 37 -211
59 -109 16 -163 38 -202 80 -13 14 -27 23 -31 21 -4 -3 -14 3 -21 13 -13 15
-12 16 4 3 21 -17 21 -13 0 29 -22 46 -28 118 -13 182 13 54 64 183 82 206 8
9 106 12 429 12 l418 0 16 -22z"/>
<path d="M1270 1635 c0 -9 -6 -12 -16 -8 -13 5 -15 2 -9 -18 4 -13 13 -30 20
-38 11 -11 13 -6 13 33 -1 25 -3 46 -5 46 -1 0 -3 -7 -3 -15z"/>
<path d="M1329 1648 c-7 -19 -6 -88 1 -83 5 3 9 24 8 46 -1 33 -5 47 -9 37z"/>
<path d="M1356 1624 c-4 -9 -4 -19 -2 -21 8 -8 26 8 26 23 0 19 -16 18 -24 -2z"/>
<path d="M1293 1614 c-3 -8 -1 -20 6 -27 8 -8 11 -4 11 16 0 30 -7 35 -17 11z"/>
<path d="M1220 1605 c0 -8 4 -15 10 -15 5 0 7 7 4 15 -4 8 -8 15 -10 15 -2 0
-4 -7 -4 -15z"/>
<path d="M1357 1576 c-27 -25 -37 -61 -15 -54 18 6 51 54 46 68 -2 7 -14 2
-31 -14z"/>
<path d="M1405 1570 c-10 -11 -16 -23 -13 -26 7 -6 38 24 38 37 0 13 -5 11
-25 -11z"/>
<path d="M1195 1550 c16 -31 45 -41 45 -16 0 19 -27 46 -46 46 -12 0 -12 -4 1
-30z"/>
<path d="M1240 1562 c0 -5 9 -17 20 -27 16 -14 20 -15 20 -4 0 16 -19 39 -32
39 -4 0 -8 -4 -8 -8z"/>
<path d="M1292 1536 c2 -22 9 -41 16 -44 17 -5 15 40 -3 64 -14 18 -15 17 -13
-20z"/>
<path d="M1440 1560 c-8 -5 -12 -11 -9 -14 2 -3 11 -1 19 4 8 5 12 11 9 14 -2
3 -11 1 -19 -4z"/>
<path d="M1165 1540 c10 -11 20 -18 23 -15 7 6 -18 35 -31 35 -5 0 -2 -9 8
-20z"/>
<path d="M1363 1518 c-23 -11 -32 -38 -12 -38 18 0 46 19 53 35 6 17 -9 18
-41 3z"/>
<path d="M1425 1520 c-3 -6 1 -7 9 -4 18 7 21 14 7 14 -6 0 -13 -4 -16 -10z"/>
<path d="M1202 1490 c14 -21 45 -36 55 -26 10 10 -29 46 -49 46 -16 0 -16 -3
-6 -20z"/>
<path d="M1260 1489 c7 -11 14 -18 17 -15 8 8 -5 36 -17 36 -7 0 -7 -6 0 -21z"/>
<path d="M1403 1493 c-7 -2 -13 -9 -13 -14 0 -14 24 -11 46 6 19 14 19 14 -1
14 -11 0 -26 -3 -32 -6z"/>
<path d="M1145 1470 c-4 -6 7 -10 24 -10 17 0 31 5 31 10 0 6 -11 10 -24 10
-14 0 -28 -4 -31 -10z"/>
<path d="M1360 1460 c0 -11 28 -17 75 -18 28 0 29 1 10 14 -11 9 -21 10 -23 5
-2 -7 -12 -7 -28 0 -31 11 -34 11 -34 -1z"/>
<path d="M1195 1450 c-16 -7 -17 -9 -3 -9 9 -1 20 4 23 9 7 11 7 11 -20 0z"/>
<path d="M1205 1420 c-10 -11 -16 -22 -14 -24 8 -7 73 19 77 32 6 20 -43 14
-63 -8z"/>
<path d="M1356 1431 c-6 -9 39 -51 55 -51 15 0 10 16 -8 32 -28 24 -41 29 -47
19z"/>
<path d="M1256 1395 c-3 -9 -12 -12 -23 -8 -15 6 -16 5 -3 -9 14 -15 17 -15
33 -1 9 9 17 20 17 25 0 14 -17 9 -24 -7z"/>
<path d="M1342 1389 c1 -16 8 -25 20 -25 23 0 23 9 -2 31 -20 18 -20 18 -18
-6z"/>
<path d="M930 1111 c-48 -15 -105 -49 -131 -78 -31 -32 -69 -93 -69 -108 1 -5
8 3 16 18 8 15 30 37 47 48 23 15 26 19 10 14 -31 -9 -29 -1 4 21 15 9 55 21
88 25 l60 7 -57 -1 c-74 -2 -59 14 19 22 55 5 56 5 23 13 -25 5 -18 6 25 3 39
-3 55 -1 45 5 -22 14 -4 12 35 -4 18 -8 36 -12 39 -9 3 4 15 -2 26 -12 11 -10
20 -14 20 -9 1 5 9 -1 20 -14 10 -13 23 -24 27 -25 9 -2 9 -60 0 -94 -4 -14 0
-23 10 -27 19 -8 53 21 53 43 0 10 -5 7 -13 -8 -6 -14 -18 -27 -26 -29 -11 -4
-10 1 2 19 10 13 17 36 17 51 0 27 1 27 20 11 11 -10 20 -25 20 -34 0 -23 -38
-69 -58 -70 -12 0 -9 -3 7 -10 13 -5 26 -7 29 -4 3 3 -1 5 -8 5 -9 0 -7 7 7
23 11 12 25 31 31 42 l11 20 1 -20 1 -20 9 20 c7 17 9 15 9 -12 1 -21 -7 -39
-21 -53 -19 -17 -20 -20 -4 -14 10 4 24 21 32 38 l13 31 1 -27 c0 -17 -8 -33
-22 -42 -12 -9 -18 -16 -12 -16 13 0 39 28 47 50 4 11 6 10 6 -4 1 -11 -7 -29
-16 -40 -18 -21 -18 -21 5 -2 17 14 22 16 22 5 1 -9 4 -8 12 5 6 10 18 27 27
38 9 10 16 24 16 30 0 6 6 13 13 16 14 4 16 -14 2 -23 -6 -4 -7 -11 -4 -17 5
-7 2 -8 -6 -3 -10 6 -12 4 -6 -11 4 -10 4 -15 0 -12 -4 4 -15 -4 -26 -17 -11
-14 -23 -23 -27 -21 -4 3 -13 1 -20 -4 -8 -4 -44 3 -90 18 -42 14 -70 27 -62
30 10 3 7 9 -10 18 -15 8 -18 13 -9 14 13 0 13 2 1 9 -8 5 -16 26 -18 48 -5
42 -31 94 -52 101 -8 3 -11 0 -7 -7 10 -15 -7 -14 -24 2 -8 6 -1 -4 16 -24 16
-20 31 -34 33 -32 3 2 -1 9 -7 15 -7 7 -12 17 -12 23 1 5 10 -1 20 -14 11 -13
20 -37 19 -55 -1 -30 -1 -30 -9 -6 l-8 25 -1 -27 c-1 -15 -6 -30 -12 -33 -6
-4 -14 -17 -18 -28 -8 -20 -9 -20 -24 10 -16 29 -73 80 -82 71 -2 -2 9 -12 25
-23 39 -26 63 -71 57 -104 -3 -16 -1 -33 6 -40 17 -17 -12 -34 -31 -19 -11 9
-11 13 0 19 10 7 10 9 1 9 -7 0 -13 5 -13 10 0 6 7 10 15 10 8 0 15 7 15 15 0
15 -6 17 -65 19 -18 1 -29 6 -28 14 2 6 -2 12 -9 12 -6 0 -9 2 -7 5 3 2 20 1
37 -4 48 -14 39 -3 -20 24 -88 41 -163 29 -202 -34 -30 -47 -29 -111 3 -126
11 -5 21 -14 21 -20 1 -16 70 -42 124 -48 30 -3 43 -1 35 4 -10 6 -6 9 14 9
31 0 33 -3 11 -24 -12 -12 -20 -13 -35 -6 -12 7 -19 7 -19 1 0 -16 38 -23 62
-10 16 9 23 9 26 0 2 -6 15 -11 28 -11 18 0 24 6 25 23 0 12 3 16 6 10 2 -7
11 -13 19 -13 9 0 13 -4 10 -9 -8 -12 75 -24 87 -12 5 5 26 7 47 4 31 -4 40
-2 49 15 8 16 8 23 -1 28 -7 4 -10 4 -6 -1 4 -4 3 -14 -3 -22 -14 -16 -59 -18
-59 -2 0 6 10 8 23 5 12 -3 16 -3 10 0 -7 3 -13 12 -13 19 0 7 -6 16 -12 18
-8 3 -6 6 5 6 9 1 17 -3 17 -9 0 -5 5 -10 11 -10 8 0 7 5 -1 15 -9 11 -22 14
-43 9 -28 -6 -29 -5 -24 18 9 33 -26 65 -73 70 l-35 3 26 18 c26 17 28 17 102
-13 123 -49 203 -35 240 43 28 58 22 104 -17 143 -41 41 -77 44 -111 9 -29
-28 -31 -43 -9 -52 10 -4 20 0 26 10 13 24 37 21 50 -7 13 -31 4 -56 -20 -56
-11 0 -52 27 -93 60 -99 81 -167 114 -244 117 -33 1 -71 -1 -85 -6z m444 -73
c-5 -8 -2 -9 10 -5 10 4 15 3 11 -3 -3 -6 0 -10 7 -11 10 0 10 -2 0 -6 -19 -7
-4 -23 16 -16 14 5 15 4 4 -8 -11 -12 -17 -10 -38 14 -21 24 -25 47 -8 47 3 0
2 -5 -2 -12z m-168 -84 c-4 -13 -11 -24 -17 -24 -6 0 -6 6 1 19 5 11 11 32 11
48 2 25 2 25 6 4 3 -12 2 -34 -1 -47z m221 10 c-3 -3 -12 -4 -19 -1 -8 3 -5 6
6 6 11 1 17 -2 13 -5z m-556 -39 c0 -5 -9 -11 -21 -13 -20 -3 -27 8 -13 22 10
9 34 3 34 -9z m77 -33 c2 -6 -8 -14 -22 -18 -14 -3 -23 -10 -20 -15 3 -5 -4
-9 -15 -9 -12 0 -21 5 -21 10 0 6 6 10 13 10 7 0 18 9 25 21 13 21 33 22 40 1z
m-130 -4 c-7 -20 -48 -23 -48 -4 0 11 9 16 26 16 16 0 24 -5 22 -12z m62 -4
c0 -2 -12 -4 -27 -4 -21 0 -24 3 -14 9 13 8 41 5 41 -5z m477 -6 c-3 -8 -6 -5
-6 6 -1 11 2 17 5 13 3 -3 4 -12 1 -19z m-597 -10 c0 -16 -3 -19 -11 -11 -6 6
-8 16 -5 22 11 17 16 13 16 -11z m280 6 c0 -2 -9 -4 -21 -4 -11 0 -18 4 -14
10 5 8 35 3 35 -6z m-250 -29 c-33 -19 -49 -19 -24 0 10 8 26 14 34 14 9 0 4
-6 -10 -14z m50 -5 c-20 -13 -33 -13 -25 0 3 6 14 10 23 10 15 0 15 -2 2 -10z
m140 0 c-20 -13 -50 -13 -50 0 0 6 15 10 33 10 24 0 28 -3 17 -10z m-90 -9 c0
-12 -39 -25 -48 -16 -7 7 17 25 36 25 6 0 12 -4 12 -9z m30 5 c0 -3 -4 -8 -10
-11 -5 -3 -10 -1 -10 4 0 6 5 11 10 11 6 0 10 -2 10 -4z m97 -23 c6 -16 -36
-28 -50 -14 -9 9 -8 14 3 21 19 12 42 9 47 -7z m127 8 c4 -5 0 -11 -6 -14 -18
-5 -48 3 -48 14 0 12 47 12 54 0z m-310 -16 c3 -8 13 -11 25 -8 13 3 21 1 21
-7 0 -14 -77 -4 -97 12 -9 7 -13 7 -13 0 0 -6 -7 -9 -15 -6 -25 10 -7 22 34
22 24 1 41 -4 45 -13z m104 3 c-3 -7 -15 -14 -29 -16 -23 -2 -23 -2 -5 13 24
18 39 20 34 3z m232 -18 c0 -5 -4 -10 -9 -10 -5 0 -7 -9 -4 -20 3 -11 14 -20
24 -20 25 0 33 -16 12 -24 -11 -5 -22 -1 -30 9 -7 10 -17 14 -24 9 -8 -4 -10
-3 -5 4 4 7 1 12 -8 12 -9 0 -16 7 -16 15 0 13 -4 12 -22 -5 -24 -22 -63 -27
-74 -9 -4 8 -9 8 -17 0 -17 -17 -50 -14 -43 4 3 9 0 15 -9 15 -8 0 -15 5 -15
10 0 15 30 12 47 -5 14 -14 16 -14 27 0 9 12 18 13 43 6 20 -6 35 -6 38 0 4 5
18 6 32 3 18 -5 24 -3 19 5 -5 7 0 11 13 11 12 0 21 -4 21 -10z m-303 -21 c4
-1 16 1 26 6 17 7 47 -9 47 -26 0 -15 -41 -21 -57 -7 -9 7 -26 11 -39 10 -13
-2 -24 1 -24 7 0 6 -7 8 -15 5 -8 -4 -15 -1 -15 6 0 10 27 9 77 -1z m159 -42
c9 3 14 -2 14 -17 0 -31 -32 -22 -36 10 -1 14 0 20 2 13 3 -7 12 -9 20 -6z
m88 4 c7 -11 -22 -23 -35 -15 -5 3 -9 9 -9 15 0 12 37 12 44 0z m31 -31 c-3
-4 1 -11 7 -13 8 -4 7 -6 -4 -6 -9 -1 -20 4 -23 9 -3 6 -1 10 5 10 6 0 8 5 4
12 -4 7 -3 8 5 4 6 -4 9 -11 6 -16z"/>
<path d="M1058 1026 c17 -20 32 -47 33 -59 0 -14 3 -17 6 -8 8 19 -22 73 -50
90 -16 10 -13 4 11 -23z"/>
<path d="M1139 1044 c6 -12 12 -40 13 -63 3 -36 5 -39 16 -24 6 9 11 31 11 47
l-2 31 -7 -35 -7 -35 -2 31 c0 16 -8 39 -17 50 -15 18 -15 18 -5 -2z"/>
<path d="M985 1036 c31 -14 64 -46 83 -81 6 -11 11 -15 12 -10 0 32 -76 105
-110 105 -8 -1 -1 -7 15 -14z"/>
<path d="M853 1013 c15 -2 39 -2 55 0 15 2 2 4 -28 4 -30 0 -43 -2 -27 -4z"/>
<path d="M1261 897 c-13 -21 -12 -21 5 -5 10 10 16 20 13 22 -3 3 -11 -5 -18
-17z"/>
<path d="M542 1767 c-68 -28 -149 -100 -202 -179 -23 -35 -47 -62 -52 -60 -5
1 -7 -2 -4 -7 3 -5 -6 -34 -20 -65 -23 -51 -25 -60 -13 -88 l13 -31 38 83 c65
141 130 221 261 319 73 55 66 64 -21 28z"/>
<path d="M130 1741 c0 -5 -3 -18 -6 -28 -4 -12 -3 -14 3 -5 7 8 22 -26 50
-110 23 -68 44 -138 48 -156 l7 -34 22 49 c20 42 22 52 11 84 -20 56 -75 162
-98 187 -21 23 -37 29 -37 13z"/>
<path d="M1905 1709 c-4 -6 -13 -8 -21 -5 -7 3 -16 1 -19 -4 -4 -6 3 -10 14
-10 12 0 21 -4 21 -10 0 -12 37 -13 44 -1 9 14 -4 41 -19 41 -8 0 -17 -5 -20
-11z"/>
<path d="M1810 1653 c-6 -21 -13 -69 -17 -107 -6 -64 -5 -70 18 -88 l24 -19
-35 17 c-19 9 -66 19 -104 22 l-69 5 33 -49 c45 -67 76 -99 140 -148 33 -24
66 -41 83 -41 32 -1 31 -2 13 34 -14 26 -69 80 -132 129 l-29 23 33 -18 c19
-10 51 -33 73 -51 l39 -34 0 33 c0 20 -9 43 -22 58 -14 15 -16 20 -5 12 31
-24 43 0 30 61 -6 29 -9 55 -7 57 2 2 7 -10 10 -27 4 -18 10 -32 13 -32 4 0
18 19 30 41 13 23 34 50 46 61 20 17 22 24 13 49 -15 42 -25 44 -44 7 -13 -25
-14 -36 -5 -51 7 -10 10 -21 8 -23 -3 -3 -16 15 -30 39 -25 42 -64 77 -86 77
-6 0 -15 -17 -21 -37z"/>
<path d="M485 1646 c-53 -24 -123 -117 -178 -240 -27 -58 -32 -91 -21 -133 10
-38 18 -27 36 50 25 102 81 208 149 278 60 63 61 66 14 45z"/>
<path d="M1710 1641 c0 -30 17 -35 45 -13 l25 20 -23 6 c-37 10 -47 7 -47 -13z"/>
<path d="M2035 1622 c-38 -23 -99 -91 -121 -133 -25 -49 -30 -138 -10 -195 9
-26 16 -69 16 -96 0 -26 4 -48 9 -48 10 0 27 39 23 53 -4 14 29 68 37 62 15
-9 75 40 98 80 17 30 23 56 23 103 0 73 -19 82 -33 16 -5 -21 -13 -55 -19 -74
-13 -42 -58 -123 -65 -116 -3 3 4 18 16 35 37 51 53 112 58 224 3 59 4 107 2
107 -2 0 -17 -8 -34 -18z m-42 -162 c-14 -41 -27 -107 -30 -147 -3 -40 -10
-73 -14 -73 -23 0 1 135 41 244 31 82 33 65 3 -24z"/>
<path d="M1690 1547 c0 -43 9 -53 53 -60 35 -5 37 -4 37 21 0 22 -8 31 -45 49
l-45 22 0 -32z"/>
<path d="M133 1495 c19 -38 47 -105 63 -147 26 -70 30 -76 48 -67 20 9 20 9 3
-4 -17 -14 -16 -20 14 -123 17 -60 35 -110 40 -112 5 -2 9 -48 9 -102 0 -54 4
-101 9 -104 4 -3 11 36 14 87 3 51 15 121 26 157 24 75 86 174 137 219 36 32
28 39 -23 20 -68 -25 -126 -109 -147 -213 l-13 -61 -6 72 c-7 84 -36 195 -48
187 -5 -3 -6 2 -3 10 8 22 -63 151 -113 204 l-44 47 34 -70z"/>
<path d="M403 1448 c-39 -40 -73 -100 -73 -130 0 -6 14 10 31 38 17 27 47 68
66 92 19 23 30 42 26 42 -5 0 -28 -19 -50 -42z"/>
<path d="M60 1465 c0 -12 63 -160 78 -183 9 -13 21 -21 29 -18 8 3 11 1 8 -4
-4 -6 7 -27 23 -48 16 -20 34 -48 41 -62 l12 -25 -18 25 c-10 14 -28 35 -40
48 -13 13 -23 26 -23 30 0 12 -75 82 -87 82 -18 0 -25 -34 -13 -61 9 -21 10
-20 6 11 -4 25 14 -2 62 -95 37 -72 87 -170 112 -218 l45 -87 3 64 c2 46 -3
81 -18 123 -12 32 -23 67 -24 79 -13 76 -60 198 -96 245 -37 50 -100 109 -100
94z"/>
<path d="M403 1384 c-27 -27 -57 -67 -68 -89 -20 -43 -33 -145 -19 -145 5 0
24 36 42 80 19 43 49 105 68 136 19 31 32 59 30 62 -3 2 -27 -18 -53 -44z"/>
<path d="M1671 1339 c22 -31 100 -74 121 -67 6 2 -5 15 -26 27 -20 13 -44 34
-53 47 -9 15 -25 24 -40 24 l-24 0 22 -31z"/>
<path d="M1984 1235 c-4 -9 -2 -21 4 -27 15 -15 44 -1 40 19 -4 23 -36 29 -44
8z"/>
<path d="M465 1211 c-41 -25 -61 -49 -85 -103 -33 -75 -44 -194 -31 -325 6
-62 14 -118 16 -125 3 -7 19 -21 36 -30 29 -17 30 -17 25 0 -3 9 -13 57 -21
106 -40 228 -21 347 71 455 39 45 35 51 -11 22z"/>
<path d="M1742 1206 c-9 -20 -7 -27 13 -44 24 -21 24 -21 30 -1 4 12 -1 29
-13 44 l-19 24 -11 -23z"/>
<path d="M1818 1207 c-25 -37 -30 -64 -16 -86 7 -12 18 -21 25 -21 6 0 13 -10
15 -22 3 -22 4 -21 27 10 l24 34 -24 50 c-28 60 -33 64 -51 35z"/>
<path d="M1985 1172 c-27 -15 -48 -31 -45 -37 3 -5 9 -9 14 -7 4 1 14 -2 20
-8 7 -5 17 -6 22 -2 5 4 0 -4 -12 -18 -34 -40 -62 -93 -88 -162 -25 -66 -48
-171 -37 -166 3 2 29 28 58 58 44 47 86 114 106 170 4 11 6 9 6 -5 1 -19 3
-18 22 5 l21 25 -17 -30 c-10 -16 -46 -66 -80 -110 l-63 -81 25 -11 c20 -10
30 -8 60 13 20 13 40 24 45 24 30 0 128 109 128 142 0 21 -38 4 -54 -24 -24
-42 -63 -84 -101 -110 -17 -11 -7 1 21 28 28 27 59 61 68 76 22 37 46 133 46
185 l0 43 -47 -30 c-27 -17 -51 -41 -55 -53 -5 -13 -6 -3 -4 26 2 26 0 50 -5
53 -5 3 -9 11 -9 17 0 7 4 6 10 -3 8 -13 10 -12 10 3 0 22 -6 22 -65 -11z m52
-144 c-3 -8 -6 -5 -6 6 -1 11 2 17 5 13 3 -3 4 -12 1 -19z"/>
<path d="M1683 1102 c6 -96 25 -158 63 -214 32 -45 28 -53 -75 -160 -68 -70
-77 -85 -102 -160 l-26 -83 -99 -37 c-55 -20 -102 -37 -106 -38 -4 0 -10 9
-13 20 -5 16 -15 20 -48 20 -80 -1 -162 -56 -169 -115 -3 -25 2 -32 37 -52 22
-12 57 -23 78 -23 20 0 37 -4 37 -10 0 -16 -72 -12 -105 6 -29 15 -29 14 -12
-3 14 -14 35 -18 100 -19 53 0 96 -6 121 -17 47 -20 91 -23 80 -5 -6 10 -4 10
8 0 22 -17 35 3 16 25 -11 14 -11 16 0 9 10 -6 13 -3 10 9 -1 10 -19 24 -38
32 l-35 13 40 -5 c123 -14 203 -17 209 -7 9 15 -16 19 -135 26 -59 4 -108 2
-127 -5 -46 -16 -62 -6 -28 17 25 16 45 18 141 16 102 -3 114 -1 136 18 l24
22 -25 -7 c-14 -3 -77 -9 -140 -13 -96 -7 -122 -12 -154 -31 -31 -20 -45 -22
-87 -17 -27 4 -57 10 -65 13 -10 4 64 32 182 71 187 61 202 64 242 53 102 -27
200 1 281 79 67 65 56 78 -69 87 -108 8 -154 -7 -214 -70 -27 -29 -44 -43 -38
-31 6 11 31 40 56 64 25 24 50 56 56 70 6 14 25 34 42 44 28 17 30 22 25 62
-5 44 6 52 38 32 6 -4 9 26 7 85 -3 71 -9 104 -28 146 -31 70 -24 78 9 11 l26
-52 15 37 c15 35 15 39 -4 66 -27 38 -96 96 -122 102 -20 6 -21 3 -15 -81z
m105 -573 c-22 -12 -164 -49 -191 -49 -39 0 -8 12 90 34 115 27 124 29 101 15z
m-538 -123 c-15 -19 -94 -50 -112 -44 -19 7 75 53 116 57 5 1 3 -6 -4 -13z"/>
<path d="M473 1155 c-19 -16 -39 -46 -51 -78 -22 -58 -39 -182 -22 -157 5 8
10 21 10 28 0 25 52 146 81 190 32 48 28 53 -18 17z"/>
<path d="M40 1114 c51 -68 127 -140 204 -194 l21 -15 -19 30 c-10 17 -30 43
-45 58 -26 29 -133 116 -161 132 -13 8 -13 7 0 -11z"/>
<path d="M1880 1089 c-61 -76 -80 -156 -64 -273 7 -51 24 -63 24 -17 0 46 36
151 74 213 31 52 33 59 18 68 -14 8 -13 9 8 7 17 -1 25 4 28 17 3 14 0 17 -12
13 -8 -3 -18 -2 -21 3 -11 17 -21 11 -55 -31z"/>
<path d="M40 1045 c0 -16 137 -167 169 -187 20 -13 57 -42 84 -67 39 -36 47
-40 47 -24 0 51 -136 187 -262 262 -21 13 -38 20 -38 16z"/>
<path d="M426 943 c-22 -46 -32 -134 -18 -159 8 -15 11 -7 17 41 4 33 11 80
16 104 12 56 7 60 -15 14z"/>
<path d="M148 821 c52 -49 120 -108 151 -130 l58 -40 -7 42 c-10 53 -77 117
-176 169 -123 64 -127 57 -26 -41z"/>
<path d="M452 863 c-44 -104 -37 -244 15 -278 13 -9 27 -14 30 -11 8 8 -17 74
-30 80 -8 3 -8 5 -1 5 8 1 8 18 2 57 -5 33 -5 84 1 122 5 37 8 68 6 70 -1 1
-11 -19 -23 -45z"/>
<path d="M1940 746 c10 -27 45 -28 45 -1 0 15 -7 20 -27 21 -23 1 -25 -2 -18
-20z"/>
<path d="M1832 741 c-51 -18 -113 -66 -134 -105 -9 -17 -7 -18 23 -12 18 3 47
19 64 34 l30 27 -24 -27 -24 -28 41 0 c42 0 43 1 67 56 37 84 38 83 -43 55z"/>
<path d="M496 675 c7 -105 8 -113 16 -109 4 3 12 -4 18 -15 17 -32 100 -91
128 -91 23 0 20 6 -40 68 -64 66 -104 128 -119 187 -5 19 -6 5 -3 -40z"/>
<path d="M200 679 c85 -73 190 -134 298 -173 88 -31 90 -31 67 -6 -53 58 -328
210 -380 210 -17 -1 -14 -5 15 -31z"/>
<path d="M345 555 c76 -63 336 -168 367 -149 4 3 8 1 8 -4 0 -5 19 -12 43 -16
94 -14 238 -50 225 -57 -7 -4 -32 -10 -54 -14 -35 -5 -51 -2 -100 25 -56 30
-63 31 -134 25 -41 -3 -97 -2 -125 4 -60 11 -67 8 -26 -13 23 -13 56 -16 143
-14 l113 3 59 -37 c68 -43 80 -45 158 -21 51 16 57 21 62 51 11 71 99 142 175
142 19 0 30 4 26 10 -20 32 -126 -7 -168 -62 l-25 -32 -26 31 c-45 53 -153 93
-171 63 -3 -6 4 -10 16 -10 61 0 169 -61 169 -96 0 -20 -6 -18 -48 15 -67 52
-165 69 -177 31 -8 -24 -5 -24 -85 0 -36 11 -79 20 -95 20 -52 0 -176 39 -270
85 -66 33 -82 38 -60 20z m680 -173 c23 -12 26 -17 13 -20 -19 -4 -118 36
-118 48 0 11 66 -7 105 -28z"/>
<path d="M690 320 c-19 -4 -62 -10 -95 -14 -33 -3 -61 -5 -63 -6 -2 0 0 -5 3
-10 4 -6 11 -7 17 -4 6 4 37 6 69 5 32 -1 79 4 104 10 35 9 49 9 58 0 8 -8 3
-11 -19 -11 -44 0 -66 -20 -62 -55 3 -26 7 -30 39 -33 20 -2 59 6 88 17 30 13
75 21 108 21 39 0 66 6 90 21 19 12 32 23 30 26 -3 2 -20 -5 -38 -16 -48 -30
-89 -26 -161 13 -71 39 -116 49 -168 36z"/>
<path d="M428 142 l-428 -2 0 -70 0 -70 1095 0 1095 0 0 70 0 70 -667 2 c-368
2 -860 2 -1095 0z m-273 -55 c6 -1 13 -11 17 -22 6 -19 6 -18 7 3 1 22 3 23
44 25 18 1 22 -4 20 -23 -2 -22 -2 -22 6 -5 6 14 18 20 49 21 23 0 39 -2 37
-7 -3 -4 -1 -10 5 -14 6 -3 10 3 10 15 0 18 4 20 23 14 29 -9 30 -10 22 -24
-6 -9 -10 -9 -16 1 -7 11 -9 9 -9 -6 0 -15 -8 -21 -33 -22 -19 -2 -27 1 -19 6
10 6 10 10 -3 21 -13 11 -15 9 -15 -11 0 -19 -2 -21 -10 -9 -6 10 -10 11 -10
3 0 -23 -50 -15 -61 10 l-10 22 5 -22 c2 -13 0 -23 -5 -23 -5 0 -10 10 -10 23
l-2 22 -4 -23 c-6 -29 -45 -27 -55 3 -6 19 -6 18 -7 -2 -1 -18 -7 -23 -28 -23
-20 0 -24 3 -14 9 11 7 11 9 0 14 -11 4 -9 9 6 22 11 8 26 13 35 9 8 -3 20 -6
25 -7z m325 -2 c4 2 8 -6 8 -19 0 -12 -7 -23 -14 -23 -8 0 -14 6 -14 14 0 7
-7 13 -15 13 -8 0 -15 -5 -15 -11 0 -5 5 -7 10 -4 6 3 10 2 10 -4 0 -5 -14 -9
-30 -9 l-31 1 23 24 c12 13 28 21 35 19 7 -3 13 0 14 7 0 9 2 9 6 -1 2 -6 8
-10 13 -7z m1430 5 c0 -5 -5 -10 -11 -10 -5 0 -7 5 -4 10 3 6 8 10 11 10 2 0
4 -4 4 -10z m60 6 c0 -3 -4 -8 -10 -11 -5 -3 -10 -1 -10 4 0 6 5 11 10 11 6 0
10 -2 10 -4z"/>
</g>
</svg>
