<?xml version="1.0" standalone="no"?>
<!DOCTYPE svg PUBLIC "-//W3C//DTD SVG 20010904//EN"
 "http://www.w3.org/TR/2001/REC-SVG-20010904/DTD/svg10.dtd">
<svg version="1.0" xmlns="http://www.w3.org/2000/svg"
 width="225.000000pt" height="225.000000pt" viewBox="0 0 225.000000 225.000000"
 preserveAspectRatio="xMidYMid meet">

<g transform="translate(0.000000,225.000000) scale(0.100000,-0.100000)"
fill="#000000" stroke="none">
<path d="M1020 2240 c-440 -44 -804 -329 -953 -747 -80 -221 -80 -515 0 -736
129 -363 434 -638 800 -723 518 -120 1041 131 1273 611 257 534 34 1198 -495
1472 -195 100 -417 144 -625 123z m-550 -550 l0 -40 -50 0 c-46 0 -50 -2 -50
-24 0 -23 5 -25 48 -28 47 -3 47 -3 47 -38 0 -35 0 -35 -47 -38 -43 -3 -48 -5
-48 -28 0 -22 4 -24 50 -24 l50 0 0 -35 0 -35 -90 0 -90 0 0 158 c0 87 3 162
7 165 3 4 44 7 90 7 l83 0 0 -40z m255 -105 c76 -204 73 -185 28 -185 -34 0
-40 4 -50 30 -10 28 -15 30 -63 30 -48 0 -52 -2 -61 -30 -10 -26 -16 -30 -50
-30 -21 0 -39 2 -39 4 0 4 83 226 112 299 9 23 16 28 40 25 29 -3 32 -9 83
-143z m236 133 c40 -13 78 -39 79 -52 0 -6 -10 -20 -21 -32 l-21 -23 -28 20
c-29 22 -71 22 -78 2 -2 -7 9 -18 25 -24 66 -25 95 -43 108 -70 23 -43 18 -68
-19 -105 -29 -29 -41 -34 -80 -34 -51 0 -90 16 -120 49 -20 22 -20 22 6 47
l25 26 26 -26 c29 -29 77 -35 96 -12 14 17 4 26 -70 59 -71 31 -91 69 -65 123
10 21 29 41 49 49 40 18 46 18 88 3z m188 -40 l33 -52 30 52 c29 50 31 52 74
52 24 0 44 -2 44 -5 0 -3 -25 -42 -55 -88 -55 -82 -55 -82 -55 -159 l0 -78
-40 0 -40 0 0 78 c0 77 0 77 -55 159 -30 46 -55 85 -55 88 0 3 20 5 44 5 41 0
44 -2 75 -52z m461 7 c0 -45 0 -45 -35 -45 l-35 0 0 -120 0 -120 -40 0 -40 0
0 120 0 120 -35 0 c-35 0 -35 0 -35 45 l0 45 110 0 110 0 0 -45z m254 17 c46
-27 69 -66 74 -126 5 -68 -23 -124 -78 -155 -142 -80 -298 78 -218 220 46 83
140 108 222 61z m-1474 -536 c0 -149 6 -166 60 -166 54 0 60 17 60 166 l0 134
51 0 51 0 -4 -147 c-4 -169 -12 -195 -76 -231 -49 -27 -110 -29 -161 -3 -68
35 -76 56 -79 229 l-4 152 51 0 51 0 0 -134z m486 114 c23 -11 49 -28 57 -38
15 -17 14 -21 -14 -55 l-31 -37 -30 25 c-21 18 -40 25 -61 23 -29 -3 -53 -28
-27 -28 7 0 40 -13 74 -29 66 -32 96 -69 96 -118 -1 -129 -188 -168 -289 -59
l-25 26 34 35 33 34 35 -30 c27 -24 42 -29 70 -27 62 5 53 32 -18 59 -103 40
-141 100 -105 168 35 68 121 89 201 51z m334 -30 l0 -50 -65 0 c-63 0 -65 -1
-65 -25 0 -24 3 -25 60 -25 l60 0 0 -50 0 -50 -60 0 c-57 0 -60 -1 -60 -25 0
-24 2 -25 65 -25 l65 0 0 -50 0 -50 -115 0 -115 0 0 200 0 200 115 0 115 0 0
-50z m658 34 c40 -28 30 -71 -33 -134 -53 -54 -54 -55 -28 -57 36 -2 66 -39
59 -74 -4 -23 -2 -26 20 -26 41 0 67 -32 61 -74 -4 -33 -3 -35 18 -31 30 5 65
-30 65 -66 0 -23 -25 -53 -133 -160 -128 -127 -135 -132 -175 -132 -32 0 -49
-7 -77 -31 -34 -30 -35 -32 -18 -51 16 -18 13 -23 -90 -126 l-107 -107 -197
198 -198 197 107 107 c102 102 108 106 126 90 17 -16 20 -15 50 16 50 52 53
78 26 213 -24 116 -24 119 -5 137 16 17 23 18 54 8 46 -15 92 -63 112 -115
l16 -41 137 138 c145 144 163 154 210 121z"/>
<path d="M629 1567 c-14 -31 -9 -40 19 -35 17 3 17 6 6 33 l-12 30 -13 -28z"/>
<path d="M1725 1615 c-50 -49 -15 -135 55 -135 19 0 40 9 55 25 16 15 25 36
25 55 0 19 -9 40 -25 55 -15 16 -36 25 -55 25 -19 0 -40 -9 -55 -25z"/>
</g>
</svg>
