<?xml version="1.0" standalone="no"?>
<!DOCTYPE svg PUBLIC "-//W3C//DTD SVG 20010904//EN"
 "http://www.w3.org/TR/2001/REC-SVG-20010904/DTD/svg10.dtd">
<svg version="1.0" xmlns="http://www.w3.org/2000/svg"
 width="225.000000pt" height="225.000000pt" viewBox="0 0 225.000000 225.000000"
 preserveAspectRatio="xMidYMid meet">

<g transform="translate(0.000000,225.000000) scale(0.100000,-0.100000)"
fill="#000000" stroke="none">
<path d="M795 2069 c-52 -51 -95 -99 -95 -107 0 -18 181 -193 197 -190 15 4
193 178 193 189 0 12 -138 156 -173 181 l-28 20 -94 -93z m185 -89 c0 -54 -4
-72 -15 -76 -8 -4 -15 -15 -15 -25 0 -24 -12 -24 -35 1 -13 14 -31 20 -62 20
l-43 0 0 75 0 75 85 0 85 0 0 -70z"/>
<path d="M830 1975 l0 -55 32 0 c17 0 40 -7 50 -17 17 -15 18 -15 18 0 0 10 7
17 15 17 12 0 15 13 15 55 l0 55 -65 0 -65 0 0 -55z m120 35 c0 -5 -25 -10
-55 -10 -30 0 -55 5 -55 10 0 6 25 10 55 10 30 0 55 -4 55 -10z m0 -31 c0 -12
-18 -14 -68 -10 -29 2 -40 6 -29 10 23 9 97 8 97 0z m0 -39 c0 -5 -25 -10 -55
-10 -30 0 -55 5 -55 10 0 6 25 10 55 10 30 0 55 -4 55 -10z"/>
<path d="M1325 1940 c3 -5 8 -10 11 -10 2 0 4 5 4 10 0 6 -5 10 -11 10 -5 0
-7 -4 -4 -10z"/>
<path d="M925 1721 c-98 -99 -180 -188 -182 -199 -3 -25 4 -34 200 -229 93
-94 170 -163 180 -163 11 0 32 14 47 30 15 17 32 30 37 30 14 0 188 179 185
191 -1 6 2 8 8 4 14 -9 120 106 120 130 -1 23 -22 50 -65 83 -45 35 -183 170
-179 175 2 2 -7 10 -21 17 -14 7 -25 19 -25 27 0 7 -7 13 -15 13 -8 0 -15 5
-15 11 0 14 -25 39 -39 39 -6 0 -11 5 -11 10 0 6 -11 10 -23 10 -17 0 -72 -49
-202 -179z m271 36 c3 -3 -9 -4 -27 -2 l-33 5 25 -18 c13 -9 27 -16 32 -14 4
1 6 -1 6 -5 -4 -26 2 -32 24 -24 37 13 71 -2 89 -39 21 -41 47 -63 66 -55 7 2
11 1 8 -3 -3 -5 4 -27 15 -50 18 -35 19 -46 9 -76 -6 -20 -25 -47 -41 -61 -28
-23 -39 -25 -125 -25 l-94 0 0 43 c0 24 5 48 11 54 8 8 6 19 -7 42 -10 17 -21
31 -24 31 -3 0 -14 -14 -25 -32 -13 -22 -15 -33 -7 -36 7 -2 12 -24 12 -53 l0
-49 -96 0 -97 0 -33 34 c-18 19 -34 32 -36 30 -6 -6 8 100 16 117 4 8 19 23
35 32 20 11 31 28 35 52 9 45 50 93 89 104 34 9 163 8 173 -2z m61 -23 c-3 -3
-12 -4 -19 -1 -8 3 -5 6 6 6 11 1 17 -2 13 -5z m97 -60 c3 -8 2 -12 -4 -9 -6
3 -10 10 -10 16 0 14 7 11 14 -7z"/>
<path d="M1522 1737 c-29 -29 -52 -57 -52 -63 0 -13 103 -114 116 -114 13 0
114 103 114 116 0 13 -103 114 -116 114 -5 0 -33 -24 -62 -53z m78 -3 c0 -11
6 -14 21 -9 18 6 20 4 15 -13 -5 -13 -1 -22 11 -27 17 -6 17 -7 0 -20 -10 -7
-16 -19 -15 -26 2 -7 -1 -14 -7 -14 -5 -1 -18 -5 -29 -10 -11 -5 -21 -3 -25 4
-4 7 -15 9 -25 5 -15 -6 -17 -3 -12 13 5 15 1 23 -11 28 -17 6 -17 7 0 19 11
9 15 20 10 31 -5 14 -3 17 10 12 8 -3 21 1 27 9 16 19 30 18 30 -2z"/>
<path d="M1560 1674 c0 -21 4 -25 23 -22 14 2 23 11 25 26 3 18 -1 22 -22 22
-21 0 -26 -5 -26 -26z"/>
<path d="M622 1723 l-53 -57 54 -54 c49 -49 57 -53 76 -42 16 8 20 17 16 33
-5 17 -4 19 4 7 8 -12 16 -9 46 20 l35 34 -58 58 c-31 32 -59 58 -62 58 -3 0
-29 -26 -58 -57z m87 -31 c-5 -20 -9 -40 -9 -44 0 -7 -59 7 -68 16 -2 3 -4 17
-4 32 0 29 16 44 50 44 15 0 21 4 17 13 -4 6 0 4 8 -6 11 -13 13 -27 6 -55z"/>
<path d="M672 1719 c4 -11 1 -16 -10 -15 -22 1 -27 -30 -6 -38 18 -7 44 10 44
29 0 7 -8 19 -17 26 -15 12 -16 12 -11 -2z"/>
<path d="M404 1598 c-41 -39 -74 -77 -74 -83 0 -17 139 -155 156 -155 17 0
154 138 154 154 0 13 -142 156 -155 156 -4 0 -40 -32 -81 -72z m124 -34 c47
-33 14 -124 -45 -124 -30 0 -73 42 -73 71 0 31 38 69 70 69 14 0 36 -7 48 -16z"/>
<path d="M459 1563 c-1 -5 -1 -11 0 -15 0 -5 -4 -7 -11 -5 -16 3 -18 -60 -2
-74 7 -6 19 -7 25 -3 8 4 9 3 5 -4 -4 -7 -2 -12 3 -12 6 0 11 4 11 10 0 5 6 7
14 4 15 -6 36 23 36 50 0 22 -36 56 -60 56 -11 0 -21 -3 -21 -7z m65 -30 c4
-10 4 -14 0 -10 -4 4 -15 0 -24 -8 -17 -16 -50 -11 -50 7 0 5 4 6 10 3 5 -3
20 1 32 9 27 19 25 20 32 -1z m-1 -48 c-3 -9 -8 -14 -10 -11 -3 3 -2 9 2 15 9
16 15 13 8 -4z"/>
<path d="M1686 1591 l-69 -70 73 -75 73 -76 26 17 c37 23 131 116 131 128 0
16 -134 145 -151 145 -8 0 -46 -31 -83 -69z m144 -77 c0 -7 -5 -14 -11 -16 -9
-3 -9 -10 0 -27 13 -23 9 -51 -7 -51 -5 0 -15 14 -22 30 -10 23 -17 29 -31 25
-17 -6 -19 0 -19 66 l0 73 45 -44 c25 -24 45 -50 45 -56z"/>
<path d="M1750 1535 c0 -39 2 -45 14 -36 11 9 16 5 26 -19 7 -17 17 -33 22
-36 5 -4 3 8 -6 24 -19 38 -20 50 -3 54 8 2 0 14 -20 31 l-33 29 0 -47z"/>
<path d="M580 1380 c-50 -50 -90 -95 -90 -101 0 -11 179 -189 191 -189 14 0
191 180 187 190 -5 16 -180 190 -190 190 -5 0 -49 -41 -98 -90z m256 -72 c10
-16 -27 -79 -52 -88 -32 -13 -71 3 -86 35 -12 26 -28 34 -28 13 0 -6 -7 -20
-17 -30 -19 -21 -85 -25 -101 -5 -14 16 -25 64 -18 75 7 12 295 12 302 0z"/>
<path d="M556 1291 c-4 -5 -2 -21 4 -35 8 -21 16 -26 45 -26 29 0 37 5 45 26
14 36 6 44 -45 44 -24 0 -46 -4 -49 -9z"/>
<path d="M710 1277 c0 -31 18 -47 52 -47 17 0 31 7 38 21 19 34 5 49 -45 49
-40 0 -45 -2 -45 -23z"/>
<path d="M1473 1373 c-51 -52 -93 -100 -93 -106 0 -13 73 -97 84 -97 17 0 38
33 44 72 7 38 11 43 31 40 40 -6 110 27 127 60 15 29 15 30 -28 78 -24 26 -50
48 -58 48 -8 0 -57 -42 -107 -95z"/>
<path d="M1700 1348 c0 -10 -7 -18 -15 -18 -9 0 -24 -13 -33 -30 -15 -26 -23
-30 -60 -30 -52 0 -69 -15 -78 -69 -4 -25 -12 -41 -20 -41 -8 0 -14 -3 -14 -7
0 -10 89 -93 101 -93 18 0 199 189 199 207 -1 25 -80 105 -80 81z"/>
<path d="M905 907 c-3 -7 -4 -152 -3 -322 l3 -310 50 0 50 0 0 110 c0 102 1
110 20 113 11 3 23 9 26 14 3 5 16 10 27 11 12 1 22 8 22 15 0 10 8 13 25 10
23 -5 25 -2 25 34 0 26 5 41 15 45 9 3 18 3 20 1 7 -7 14 -66 14 -127 l1 -54
21 27 c11 14 29 26 40 26 23 0 23 6 -1 -63 -11 -31 -20 -67 -20 -79 -1 -13 -7
-34 -15 -48 -20 -36 -19 -40 16 -40 21 0 28 -4 23 -12 -6 -10 -5 -10 7 -1 8 6
32 13 54 15 l40 3 3 300 c1 165 0 310 -3 323 l-5 22 -226 0 c-171 0 -226 -3
-229 -13z m342 -63 c-3 -3 -12 -4 -19 -1 -8 3 -5 6 6 6 11 1 17 -2 13 -5z
m-104 -21 c-35 -2 -91 -2 -125 0 -35 2 -7 3 62 3 69 0 97 -1 63 -3z m-96 -215
c-3 -8 -6 -5 -6 6 -1 11 2 17 5 13 3 -3 4 -12 1 -19z"/>
<path d="M1195 249 c-11 -16 -1 -19 13 -3 7 8 8 14 3 14 -5 0 -13 -5 -16 -11z"/>
<path d="M1181 193 c1 -4 1 -20 0 -35 l-1 -28 -85 0 -85 0 0 -65 0 -65 90 0
90 0 1 68 c1 37 2 80 3 95 2 15 -1 30 -6 33 -5 3 -8 2 -7 -3z"/>
</g>
</svg>
