<?xml version="1.0" standalone="no"?>
<!DOCTYPE svg PUBLIC "-//W3C//DTD SVG 20010904//EN"
 "http://www.w3.org/TR/2001/REC-SVG-20010904/DTD/svg10.dtd">
<svg version="1.0" xmlns="http://www.w3.org/2000/svg"
 width="225.000000pt" height="225.000000pt" viewBox="0 0 225.000000 225.000000"
 preserveAspectRatio="xMidYMid meet">

<g transform="translate(0.000000,225.000000) scale(0.100000,-0.100000)"
fill="#000000" stroke="none">
<path d="M956 2201 c-3 -5 -15 -69 -26 -142 -12 -74 -24 -140 -28 -147 -4 -7
-44 -28 -89 -46 l-83 -33 -122 88 c-67 49 -127 89 -132 89 -13 0 -236 -223
-236 -236 0 -5 40 -65 89 -132 l88 -122 -33 -83 c-18 -45 -39 -85 -46 -89 -7
-4 -73 -16 -147 -28 -73 -11 -137 -23 -142 -26 -12 -7 -12 -331 0 -338 5 -3
69 -15 142 -26 74 -12 140 -24 147 -28 7 -4 28 -44 46 -89 l33 -83 -88 -122
c-49 -67 -89 -127 -89 -132 0 -13 223 -236 236 -236 5 0 65 40 132 89 l122 88
83 -33 c45 -18 85 -39 89 -46 4 -7 16 -74 28 -148 11 -74 24 -138 29 -143 4
-4 81 -6 172 -5 l164 3 13 64 c7 36 14 67 17 69 2 2 23 -11 47 -31 198 -160
503 -141 687 44 99 99 151 224 151 364 0 130 -34 233 -107 323 -20 24 -33 45
-31 47 2 3 33 10 69 17 l64 13 3 164 c1 91 -1 168 -5 172 -5 5 -69 18 -143 29
-74 12 -141 24 -148 28 -7 4 -28 44 -46 89 l-33 83 88 122 c49 67 89 127 89
132 0 13 -223 236 -236 236 -5 0 -65 -40 -132 -89 l-122 -88 -83 33 c-45 18
-85 39 -89 46 -4 7 -16 73 -28 147 -11 73 -23 137 -26 142 -3 5 -79 9 -169 9
-90 0 -166 -4 -169 -9z m292 -546 c93 -22 179 -70 253 -142 101 -97 155 -212
166 -355 l6 -78 -32 0 -31 0 0 58 c0 204 -158 403 -364 458 -162 43 -351 -11
-469 -135 -92 -96 -137 -207 -137 -337 0 -258 219 -484 472 -484 58 0 58 0 58
-30 0 -30 -1 -30 -52 -30 -239 1 -467 185 -523 422 -42 180 9 362 142 500 135
139 325 197 511 153z m37 -145 c46 -18 77 -40 131 -94 86 -86 114 -149 122
-273 4 -74 3 -83 -14 -89 -70 -23 -137 -67 -199 -129 -62 -62 -106 -129 -129
-199 -6 -17 -15 -18 -89 -14 -111 7 -183 36 -257 104 -67 62 -101 115 -124
193 -30 101 -15 234 36 321 27 46 104 126 146 152 100 62 258 74 377 28z m534
-519 c33 -10 80 -30 103 -44 65 -38 145 -128 181 -204 30 -64 32 -74 32 -183
0 -111 -1 -117 -36 -191 -48 -99 -119 -170 -218 -218 -74 -35 -80 -36 -191
-36 -109 0 -119 2 -183 32 -76 36 -166 116 -204 181 -60 102 -79 243 -47 353
70 241 328 383 563 310z"/>
<path d="M1102 1508 c-17 -17 -15 -73 4 -89 23 -19 48 1 52 40 5 50 -27 78
-56 49z"/>
<path d="M847 1403 c-14 -13 -6 -40 17 -62 47 -44 89 -2 45 45 -22 23 -49 31
-62 17z"/>
<path d="M1341 1386 c-26 -27 -25 -59 3 -64 24 -5 68 37 64 63 -4 29 -40 30
-67 1z"/>
<path d="M1102 1318 c-7 -7 -12 -43 -12 -93 l0 -81 -52 -30 c-41 -23 -53 -35
-53 -54 0 -36 34 -37 92 -4 84 48 83 46 83 154 0 93 -8 120 -35 120 -6 0 -16
-5 -23 -12z"/>
<path d="M739 1144 c-21 -25 1 -49 46 -49 24 0 42 6 48 17 16 24 -8 48 -48 48
-18 0 -38 -7 -46 -16z"/>
<path d="M1419 1144 c-21 -25 1 -49 46 -49 24 0 42 6 48 17 16 24 -8 48 -48
48 -18 0 -38 -7 -46 -16z"/>
<path d="M861 906 c-26 -27 -25 -59 3 -64 24 -5 68 37 64 63 -4 29 -40 30 -67
1z"/>
<path d="M1102 828 c-17 -17 -15 -73 4 -89 23 -19 48 1 52 40 5 50 -27 78 -56
49z"/>
<path d="M1735 636 l-141 -144 -71 69 c-63 62 -75 69 -110 69 -62 0 -104 -53
-89 -113 3 -12 56 -73 119 -135 159 -157 143 -159 350 46 181 178 217 222 217
264 0 44 -48 88 -97 88 -36 0 -46 -8 -178 -144z m203 56 c4 -13 -324 -352
-342 -352 -15 0 -206 192 -206 207 0 31 41 8 110 -62 45 -45 83 -75 95 -75 14
0 70 51 164 150 135 143 167 166 179 132z"/>
</g>
</svg>
